<?xml version="1.0" encoding="utf-8"?>
<!-- Generator: Adobe Illustrator 23.0.1, SVG Export Plug-In . SVG Version: 6.00 Build 0)  -->
<svg version="1.1" id="Layer_1" xmlns="http://www.w3.org/2000/svg" xmlns:xlink="http://www.w3.org/1999/xlink" x="0px" y="0px"
	 viewBox="0 0 1000.3 353.5" style="enable-background:new 0 0 1000.3 353.5;" xml:space="preserve">
<style type="text/css">
	.st0{fill:#FFFFFF;}
	.st1{fill:#645FAA;}
	.st2{fill:#C9234A;}
	.st3{fill:#0089CF;}
	.st4{fill:#F36F21;}
	.st5{fill:#0DB14B;}
	.st6{fill:#FDB913;}
	.st7{fill:#EEEEEE;}
</style>
<g>
	<path class="st0" d="M500,17.8c3.7-6,9.8-12.3,16.4-15C527.8-2.4,543-0.2,552.2,8c9,8.1,13.5,19.2,11.4,31.7
		c2.2-0.4,4.4-1.8,6.7-2.6c13.9-3.9,28.6,0.3,37.5,12.2c6.7,8.5,8.4,21.7,4.4,32c-2,5.2-5.4,9.8-9.8,13.8l0.4,0.4
		c12.9,0.6,25.6,10.7,29.6,23c4.3,12.4,0.5,25.7-8.6,34.8c-7.4,7.3-17,9.9-27.6,9.7H403.8c-15.8,0.3-28-6.7-34.6-20.7
		c-5.2-12.1-2.6-27.5,7-36.7c6.1-6.4,13.7-9,21.9-10.3c-9.3-8.6-13.8-20.4-11.2-33.1c1.9-10.3,10.6-20.6,20.6-24.2
		c8.8-3.5,20.8-2.9,28.9,1.9l0.3-0.4c-2.4-14,3.7-26.5,15.3-34.3c10.3-7,26.8-6.8,36.9,0.6C493.6,8.6,497.3,13.4,500,17.8"/>
	<path class="st1" d="M554.6,23c4.1,8.3,1.7,19.3-2.6,26.8l-33.4,75.2l-0.3,0.4L506.2,49c-1-7.3,6.9-10.4,11.5-14
		c-0.2-1.1-1.4-1-2.2-1.5l-11.3-0.1l-0.3-0.3c0.1-9.5,5.2-18.2,13.8-22.8c9-5.2,21.7-3.8,29.5,2.9C550.4,16,553,19.3,554.6,23"/>
	<path class="st2" d="M493,20.4c2.7,5.1,4.3,10.8,3.3,17.1l-13.6,87.3c0.1,0.1-0.1,0.2-0.2,0.3l-3.5-7l-34.1-76.3
		c-3.2-9.8-0.2-20.1,6.9-27.1c7.2-7.3,19.1-9.3,28.5-5.3C485.3,11.5,490.1,15.5,493,20.4"/>
	<path class="st3" d="M604,57.1c4.6,7.8,3.6,19.7-1.5,27c-3.2,5.1-8.4,7.7-12.8,11l-70.7,48.6h-0.2l0.8-2.3L557,56.7
		c5.6-10,16.3-15,27.7-13.5C592.5,44.6,600.2,49.6,604,57.1"/>
	<path class="st4" d="M443.3,56.7l39,87h-0.6L403,89.4c-8-6.7-11.3-16.9-8.6-27.1c2-7.7,8.4-14.8,15.9-17.6
		C422.7,40.2,436.7,45,443.3,56.7"/>
	<path class="st5" d="M624.5,118.5c3.9,8.3,2.4,19.6-3.2,26.7c-5.6,6.7-13,10.4-21.7,10.2l-83.9,0.1l70.3-48.9
		c6.9-4.4,17.3-5.2,24.8-1.6C616.5,107.2,622,112.8,624.5,118.5"/>
	<path class="st6" d="M376.1,118.5c-3.9,8.3-2.4,19.6,3.2,26.7c5.6,6.7,13,10.4,21.7,10.2l83.9,0.1l-70.3-48.9
		c-6.9-4.4-17.3-5.2-24.8-1.6C384.1,107.2,378.6,112.8,376.1,118.5"/>
	<path class="st7" d="M225.4,205.6c-40.8,0-73.9,33.2-73.9,73.9c0,40.8,33.1,73.9,73.9,73.9c40.8,0,73.9-33.2,73.9-73.9
		C299.4,238.8,266.2,205.6,225.4,205.6 M225.4,338.9c-32.7,0-59.4-26.6-59.4-59.4c0-32.7,26.6-59.4,59.4-59.4
		c32.7,0,59.4,26.6,59.4,59.4C284.8,312.3,258.2,338.9,225.4,338.9"/>
	<path class="st7" d="M862.7,280.5c-4-2.1-28.1-14.5-31.6-16.3c-12.7-6.5-17.1-12.2-17.1-21.9c0-13.5,11-22.1,28.2-22.1
		c10.1,0,19.8,4.4,25.5,7.6c1,0.6,2.3,0.9,3.5,0.9c4,0,7.3-3.3,7.3-7.3c0-2.7-1.5-5-3.6-6.3c-7.2-4-19.4-9.5-32.6-9.5
		c-25.2,0-42.7,15.1-42.7,36.7c0,19.4,12.7,28.5,25.2,34.9c3.5,1.8,27.9,14.4,31.6,16.3c9.6,5,15,12.6,15,21.3
		c0,11.7-9.9,24.1-28.2,24.1c-17.8,0-31.6-11.9-35.4-15.6l-1.1-1.1l-10.8,9.8l1.3,1.3c4.8,4.7,22.2,20.2,46.1,20.2
		c26.7,0,42.7-19.6,42.7-38.6C885.7,300.7,877.4,288.2,862.7,280.5"/>
	<path class="st7" d="M73.9,220.2c15.9,0,30.8,6.2,42,17.4c2.7,2.7,7.7,2.7,10.3,0c1.4-1.4,2.1-3.2,2.1-5.1c0-1.9-0.7-3.8-2.1-5.1
		l-0.9-0.9c-13.8-13.4-32.1-20.8-51.4-20.8C33.2,205.6,0,238.8,0,279.6c0,40.8,33.2,73.9,73.9,73.9c21.5,0,40.9-9.2,54.4-23.9
		L118,319.3c-10.9,12.1-26.6,19.7-44.1,19.7c-32.7,0-59.4-26.6-59.4-59.4C14.5,246.9,41.2,220.2,73.9,220.2"/>
	<path class="st7" d="M574.9,220.2c15.9,0,30.8,6.2,42,17.4c2.7,2.7,7.7,2.7,10.3,0c1.4-1.4,2.2-3.2,2.2-5.1c0-1.9-0.8-3.8-2.2-5.1
		l-0.9-0.9c-13.9-13.4-32.1-20.8-51.4-20.8c-40.8,0-73.9,33.2-73.9,73.9c0,40.8,33.2,73.9,73.9,73.9c21.5,0,40.9-9.2,54.4-23.9
		L619,319.3c-10.9,12.1-26.6,19.7-44.1,19.7c-32.7,0-59.4-26.6-59.4-59.4C515.6,246.9,542.2,220.2,574.9,220.2"/>
	<path class="st7" d="M449.7,205.6c-2.7,0-4.9,1.8-6.1,4c-1.2,2.3-43.5,106.9-43.5,106.9c0,0-42.3-104.6-43.5-106.9
		c-1.2-2.3-3.3-4-6.1-4c-3.2,0-5.6,2.3-6.4,5.3c-0.8,3-24.7,134.7-24.7,134.7c-0.1,0.4-0.1,0.9-0.1,1.3c0,3.6,3,6.6,6.6,6.6
		c3.2,0,5.9-2.3,6.4-5.3L353,235.5c0,0,39.9,98.5,41,100.9c1.2,2.3,3.3,4.2,6.1,4.2c2.8,0,4.9-1.8,6.1-4.2
		c1.2-2.3,41.1-100.9,41.1-100.9l21.5,117.2h13.3c0,0-25.1-138.8-26-141.7C455.3,208,452.9,205.6,449.7,205.6"/>
	<path class="st7" d="M712.5,205.7c-2.8,0-4.9,1.8-6.1,4.1c-1.2,2.3-54.7,134.6-54.7,134.6c-0.3,0.8-0.5,1.6-0.5,2.6
		c0,3.6,2.9,6.6,6.6,6.6c2.8,0,5.1-1.7,6.1-4.2l20.8-51.1h55.8l22.2,54.5h14.2c0,0-57-140.6-58.2-142.9
		C717.5,207.5,715.3,205.6,712.5,205.7 M690.5,283.6l22-54l22,54H690.5z"/>
	<path class="st7" d="M993,206.4h-82.3c-4,0-7.3,3.3-7.3,7.3c0,4,3.3,7.3,7.3,7.3h34.5v131.7h13.3V221H993c4,0,7.3-3.3,7.3-7.3
		C1000.3,209.7,997,206.4,993,206.4"/>
</g>
</svg>
